# Blender v2.93.0 OBJ File: 'NAVE_V03_colllider.blend'
# www.blender.org
mtllib nave collider low.mtl
o Plano.001_Plano.004
v -1.724151 0.115293 -0.315052
v -1.679903 0.076516 0.372503
v -1.359501 0.144443 -0.301144
v -1.600067 0.093927 0.477941
v -0.908778 0.126096 -0.320025
v -0.860167 0.112091 0.979181
v -0.682327 0.142791 -0.426419
v -0.527410 0.168750 1.146984
v -0.328178 0.819397 -0.374443
v -0.338952 0.820692 0.476305
v -1.795549 -0.003568 -0.368020
v -1.460331 -0.016226 -0.390306
v -0.803991 -0.016226 -0.364538
v -0.690914 -0.005483 -0.456917
v -1.677148 -0.115206 -0.281183
v -1.351604 -0.132369 -0.266518
v -0.943721 -0.140435 -0.242512
v -0.689887 -0.132369 -0.213275
v -1.741634 -0.125369 -0.127197
v -1.419369 -0.199162 0.023144
v -1.035855 -0.189934 0.241409
v -0.577717 -0.245593 0.351846
v -1.793708 -0.127884 0.281285
v -1.540321 -0.152433 0.591601
v -1.043473 -0.149770 0.930916
v -0.517042 -0.140311 1.033660
v -1.878404 0.063008 -0.156400
v -1.902485 0.053858 0.082111
v -1.925851 -0.045126 -0.262401
v -1.896844 0.006551 -0.323821
v -1.923837 -0.079513 -0.182734
v -1.885272 -0.081881 0.042658
v -0.325742 0.098471 1.601045
v -0.315373 -0.210589 1.487721
v -0.315373 -0.401564 1.059938
v -0.315373 -0.470314 0.469192
v -0.315373 -0.419388 -0.111370
v -0.294273 -0.322008 -0.636901
v -0.757999 0.181653 -0.909761
v -0.328178 0.421814 -0.874677
v -0.783256 -0.300627 -0.880931
v -0.304487 -0.372183 -0.996626
v -0.757999 0.196320 -1.243431
v -0.328177 0.402530 -1.274127
v -0.773042 -0.213224 -1.223550
v -0.294273 -0.333585 -1.294684
v 1.724151 0.115293 -0.315051
v 1.679903 0.076516 0.372504
v 1.359502 0.144443 -0.301143
v 1.600067 0.093927 0.477942
v 0.908778 0.126096 -0.320024
v 0.860167 0.112091 0.979181
v 0.682327 0.142791 -0.426419
v 0.527410 0.168750 1.146985
v 0.328178 0.819397 -0.374443
v 0.338952 0.820692 0.476305
v 0.000000 0.953594 -0.433961
v -0.000000 0.941694 0.476305
v -0.000000 0.306791 1.467787
v -0.000000 0.731645 0.753343
v -0.000000 0.840635 0.602339
v 1.795549 -0.003568 -0.368020
v 1.460332 -0.016226 -0.390305
v 0.803991 -0.016226 -0.364538
v 0.690914 -0.005483 -0.456917
v 1.677148 -0.115206 -0.281182
v 1.351605 -0.132369 -0.266517
v 0.943721 -0.140435 -0.242512
v 0.689887 -0.132369 -0.213275
v 1.741634 -0.125369 -0.127196
v 1.419369 -0.199162 0.023144
v 1.035855 -0.189934 0.241410
v 0.577717 -0.245593 0.351847
v 1.793708 -0.127884 0.281286
v 1.540321 -0.152433 0.591601
v 1.043473 -0.149770 0.930917
v 0.517041 -0.140311 1.033661
v 1.878404 0.063008 -0.156398
v 1.902485 0.053858 0.082112
v 1.925851 -0.045126 -0.262400
v 1.896844 0.006551 -0.323820
v 1.923837 -0.079513 -0.182733
v 1.885272 -0.081881 0.042659
v 0.325741 0.098471 1.601045
v 0.315372 -0.210589 1.487721
v -0.000001 0.003451 1.773380
v -0.000000 -0.305610 1.660056
v 0.315372 -0.401564 1.059939
v -0.000000 -0.496584 1.232274
v 0.315372 -0.470314 0.469192
v -0.000000 -0.565335 0.641527
v 0.315373 -0.419388 -0.111370
v -0.000000 -0.514408 0.060965
v 0.294273 -0.322008 -0.636901
v 0.000000 -0.390351 -0.730139
v 0.757999 0.181653 -0.909760
v 0.328178 0.421814 -0.874676
v 0.000000 0.556011 -0.934195
v 0.783257 -0.300627 -0.880931
v 0.304488 -0.372183 -0.996626
v 0.000000 -0.400456 -0.979391
v 0.757999 0.196320 -1.243430
v 0.328178 0.402530 -1.274127
v 0.000000 0.536727 -1.333645
v 0.773043 -0.213224 -1.223549
v 0.294274 -0.333585 -1.294684
v 0.000000 -0.401928 -1.387922
v 0.000000 0.180011 -1.393149
vt 0.038471 0.033695
vt 0.882303 0.551248
vt 0.839423 0.752084
vt 0.073486 0.978297
vt 1.000000 1.000000
vt 0.000000 1.000000
vt 1.000000 1.000000
vt 0.000000 1.000000
vt 0.642980 1.000000
vt 0.000000 1.000000
vt 0.642980 1.000000
vt 0.000000 1.000000
vt 0.642980 1.000000
vt 0.642980 1.000000
vt 1.000000 1.000000
vt 0.000000 1.000000
vt 0.000000 1.000000
vt 0.000000 1.000000
vt 0.000000 0.000000
vt 0.000000 1.000000
vt 0.000000 1.000000
vt 0.000000 1.000000
vt 0.000000 0.000000
vt 0.000000 1.000000
vt 0.000000 1.000000
vt 0.000000 1.000000
vt 0.000000 0.000000
vt 0.000000 1.000000
vt 0.000000 1.000000
vt 0.000000 0.319541
vt 0.000000 0.000000
vt 0.000000 1.000000
vt 0.000000 1.000000
vt 0.000000 0.603325
vt 0.000000 0.442214
vt 0.000000 0.442214
vt 0.000000 0.000000
vt 0.208046 0.182219
vt 0.000000 0.000000
vt 0.000000 0.000000
vt 0.000000 0.000000
vt 0.882303 0.551248
vt 0.000000 1.000000
vt 0.000000 1.000000
vt 0.000000 1.000000
vt 0.000000 1.000000
vt 0.000000 1.000000
vt 0.000000 1.000000
vt 0.000000 1.000000
vt 0.000000 1.000000
vt 0.000000 1.000000
vt 0.000000 1.000000
vt 0.000000 1.000000
vt 0.000000 1.000000
vt 0.000000 1.000000
vt 0.000000 1.000000
vt 0.000000 1.000000
vt 0.000000 1.000000
vt 0.000000 1.000000
vt 0.000000 1.000000
vt 0.000000 1.000000
vt 0.000000 1.000000
vt 0.000000 1.000000
vt 0.000000 1.000000
vt 0.000000 1.000000
vt 0.000000 1.000000
vt 0.000000 1.000000
vt 0.038471 0.033695
vt 0.073486 0.978297
vt 0.839423 0.752084
vt 0.882303 0.551248
vt 0.000000 1.000000
vt 1.000000 1.000000
vt 0.000000 1.000000
vt 1.000000 1.000000
vt 0.000000 1.000000
vt 0.642980 1.000000
vt 0.000000 1.000000
vt 0.000000 1.000000
vt 0.000000 1.000000
vt 0.000000 0.000000
vt 0.000000 1.000000
vt 0.000000 1.000000
vt 0.000000 1.000000
vt 0.000000 0.000000
vt 0.000000 1.000000
vt 0.000000 1.000000
vt 0.000000 1.000000
vt 0.000000 0.000000
vt 0.000000 1.000000
vt 0.000000 1.000000
vt 0.000000 0.319541
vt 0.000000 0.000000
vt 0.000000 1.000000
vt 0.000000 1.000000
vt 0.000000 0.603325
vt 0.000000 0.442214
vt 0.000000 0.000000
vt 0.000000 0.442214
vt 0.208046 0.182219
vt 0.000000 0.000000
vt 0.000000 0.000000
vt 0.000000 0.000000
vt 0.882303 0.551248
vt 0.000000 1.000000
vt 0.000000 1.000000
vt 0.000000 1.000000
vt 0.000000 1.000000
vt 0.000000 1.000000
vt 0.000000 1.000000
vt 0.000000 1.000000
vt 0.000000 1.000000
vt 0.000000 1.000000
vt 0.000000 1.000000
vt 0.000000 1.000000
vt 0.000000 1.000000
vt 0.000000 1.000000
vt 0.000000 1.000000
vn -0.1160 0.9922 0.0449
vn -0.0120 0.9995 0.0299
vn -0.1306 0.9914 0.0051
vn -0.9162 0.3975 0.0500
vn -0.3570 0.9341 0.0034
vn -0.2620 0.7690 0.5831
vn -0.4053 0.7476 0.5261
vn -0.5077 0.0539 -0.8598
vn 0.0124 0.4038 -0.9148
vn -0.0215 0.4636 -0.8858
vn -0.0582 -0.8125 -0.5800
vn 0.0272 -0.7165 -0.6971
vn -0.0398 -0.6995 -0.7135
vn -0.0361 -0.9876 -0.1525
vn 0.0442 -0.9892 -0.1396
vn -0.0874 -0.9768 -0.1955
vn -0.0699 -0.9917 0.1079
vn -0.0283 -0.9974 0.0660
vn -0.1784 -0.9839 0.0129
vn -0.2827 -0.1810 0.9420
vn -0.5489 0.2366 0.8017
vn -0.7733 0.1237 0.6219
vn -0.8580 0.0471 0.5116
vn -0.9301 0.3646 0.0444
vn -0.2133 0.9754 0.0551
vn -0.2794 -0.7247 -0.6299
vn -0.2328 -0.9420 -0.2419
vn -0.3047 -0.9524 -0.0138
vn -0.4664 0.7750 -0.4264
vn -0.9951 0.0930 0.0334
vn -0.9102 -0.1692 0.3781
vn -0.5193 -0.3019 0.7995
vn -0.3215 0.8131 0.4853
vn -0.4457 -0.8174 0.3649
vn -0.3408 -0.9338 0.1087
vn -0.2447 -0.9659 -0.0847
vn -0.2353 -0.9578 -0.1649
vn -0.7774 -0.5743 0.2564
vn -0.7358 -0.6653 0.1261
vn -0.6144 -0.7872 -0.0526
vn -0.6136 -0.7536 -0.2357
vn -0.2466 -0.8745 0.4176
vn -0.7391 0.6491 -0.1799
vn -0.1461 -0.9842 0.0999
vn -0.3973 0.7184 -0.5710
vn -0.9845 0.0524 0.1675
vn -0.4608 0.8875 -0.0056
vn -0.1658 -0.9847 -0.0541
vn -0.3850 0.9218 -0.0445
vn -0.2292 -0.9537 -0.1949
vn -0.9990 0.0447 -0.0083
vn -0.1831 0.2398 -0.9534
vn -0.3038 -0.0086 -0.9527
vn -0.2390 0.1598 -0.9578
vn -0.1688 -0.0914 -0.9814
vn -0.1945 -0.0404 -0.9801
vn 0.1160 0.9922 0.0449
vn 0.0120 0.9995 0.0299
vn 0.1306 0.9914 0.0051
vn 0.9162 0.3975 0.0500
vn 0.3570 0.9341 0.0034
vn 0.2620 0.7690 0.5831
vn 0.4053 0.7476 0.5261
vn 0.5077 0.0539 -0.8598
vn -0.0124 0.4038 -0.9148
vn 0.0215 0.4636 -0.8858
vn 0.0582 -0.8125 -0.5800
vn -0.0272 -0.7165 -0.6971
vn 0.0398 -0.6995 -0.7135
vn 0.0361 -0.9876 -0.1525
vn -0.0442 -0.9892 -0.1396
vn 0.0874 -0.9768 -0.1955
vn 0.0699 -0.9917 0.1079
vn 0.0283 -0.9974 0.0660
vn 0.1784 -0.9839 0.0129
vn 0.2827 -0.1810 0.9420
vn 0.5489 0.2366 0.8017
vn 0.7733 0.1237 0.6219
vn 0.8580 0.0471 0.5116
vn 0.9301 0.3646 0.0444
vn 0.2133 0.9754 0.0551
vn 0.2794 -0.7247 -0.6299
vn 0.2328 -0.9420 -0.2419
vn 0.3047 -0.9524 -0.0138
vn 0.4664 0.7750 -0.4264
vn 0.9951 0.0930 0.0334
vn 0.9102 -0.1692 0.3781
vn 0.5193 -0.3019 0.7995
vn 0.3215 0.8131 0.4853
vn 0.4457 -0.8174 0.3649
vn 0.3408 -0.9338 0.1087
vn 0.2447 -0.9659 -0.0847
vn 0.2353 -0.9578 -0.1649
vn 0.7774 -0.5743 0.2564
vn 0.7358 -0.6653 0.1261
vn 0.6144 -0.7872 -0.0526
vn 0.6136 -0.7536 -0.2357
vn 0.2466 -0.8745 0.4176
vn 0.7391 0.6491 -0.1799
vn 0.1461 -0.9842 0.0999
vn 0.3973 0.7184 -0.5710
vn 0.9845 0.0524 0.1675
vn 0.4608 0.8875 -0.0056
vn 0.1658 -0.9847 -0.0541
vn 0.3850 0.9218 -0.0445
vn 0.2292 -0.9537 -0.1949
vn 0.9990 0.0447 -0.0083
vn 0.1831 0.2398 -0.9534
vn 0.3038 -0.0086 -0.9527
vn 0.2390 0.1598 -0.9578
vn 0.1688 -0.0914 -0.9814
vn 0.1945 -0.0404 -0.9801
usemtl None
s off
f 1/1/1 2/2/1 4/3/1 3/4/1
f 3/4/2 4/3/2 6/5/2 5/6/2
f 5/6/3 6/5/3 8/7/3 7/8/3
f 7/8/4 8/7/4 10/9/4 9/10/4
f 9/10/5 10/9/5 58/11/5 57/12/5
f 58/11/6 10/9/6 60/13/6 61/14/6
f 10/9/7 8/7/7 59/15/7 60/13/7
f 5/6/8 7/8/8 14/16/8 13/17/8
f 3/4/9 5/6/9 13/17/9 12/18/9
f 1/1/10 3/4/10 12/18/10 11/19/10
f 13/17/11 14/16/11 18/20/11 17/21/11
f 12/18/12 13/17/12 17/21/12 16/22/12
f 11/19/13 12/18/13 16/22/13 15/23/13
f 17/21/14 18/20/14 22/24/14 21/25/14
f 16/22/15 17/21/15 21/25/15 20/26/15
f 15/23/16 16/22/16 20/26/16 19/27/16
f 21/25/17 22/24/17 26/28/17 25/29/17
f 20/26/18 21/25/18 25/29/18 24/30/18
f 19/27/19 20/26/19 24/30/19 23/31/19
f 25/29/20 26/28/20 8/32/20 6/33/20
f 24/30/21 25/29/21 6/33/21 4/34/21
f 23/31/22 24/30/22 4/34/22 2/35/22
f 23/31/23 2/35/23 28/36/23 32/37/23
f 27/38/24 30/39/24 29/40/24 31/41/24
f 2/2/25 1/1/25 27/38/25 28/42/25
f 11/19/26 15/23/26 29/40/26 30/39/26
f 15/23/27 19/27/27 31/41/27 29/40/27
f 19/27/28 23/31/28 32/37/28 31/41/28
f 1/1/29 11/19/29 30/39/29 27/38/29
f 28/36/30 27/38/30 31/41/30 32/37/30
f 8/32/31 26/28/31 34/43/31 33/44/31
f 33/44/32 34/43/32 87/45/32 86/46/32
f 8/32/33 33/44/33 86/46/33 59/15/33
f 87/45/34 34/43/34 35/47/34 89/48/34
f 89/48/35 35/47/35 36/49/35 91/50/35
f 91/50/36 36/49/36 37/51/36 93/52/36
f 93/52/37 37/51/37 38/53/37 95/54/37
f 34/43/38 26/28/38 35/47/38
f 22/24/39 36/49/39 35/47/39 26/28/39
f 18/20/40 37/51/40 36/49/40 22/24/40
f 14/16/41 38/53/41 37/51/41 18/20/41
f 38/53/42 14/16/42 41/55/42 42/56/42
f 7/8/43 9/10/43 40/57/43 39/58/43
f 95/54/44 38/53/44 42/56/44 101/59/44
f 9/10/45 57/12/45 98/60/45 40/57/45
f 14/16/46 7/8/46 39/58/46 41/55/46
f 39/58/47 40/57/47 44/61/47 43/62/47
f 101/59/48 42/56/48 46/63/48 107/64/48
f 40/57/49 98/60/49 104/65/49 44/61/49
f 42/56/50 41/55/50 45/66/50 46/63/50
f 41/55/51 39/58/51 43/62/51 45/66/51
f 43/62/52 44/61/52 108/67/52
f 107/64/53 46/63/53 108/67/53
f 44/61/54 104/65/54 108/67/54
f 46/63/55 45/66/55 108/67/55
f 45/66/56 43/62/56 108/67/56
f 47/68/57 49/69/57 50/70/57 48/71/57
f 49/69/58 51/72/58 52/73/58 50/70/58
f 51/72/59 53/74/59 54/75/59 52/73/59
f 53/74/60 55/76/60 56/77/60 54/75/60
f 55/76/61 57/12/61 58/11/61 56/77/61
f 58/11/62 61/14/62 60/13/62 56/77/62
f 56/77/63 60/13/63 59/15/63 54/75/63
f 51/72/64 64/78/64 65/79/64 53/74/64
f 49/69/65 63/80/65 64/78/65 51/72/65
f 47/68/66 62/81/66 63/80/66 49/69/66
f 64/78/67 68/82/67 69/83/67 65/79/67
f 63/80/68 67/84/68 68/82/68 64/78/68
f 62/81/69 66/85/69 67/84/69 63/80/69
f 68/82/70 72/86/70 73/87/70 69/83/70
f 67/84/71 71/88/71 72/86/71 68/82/71
f 66/85/72 70/89/72 71/88/72 67/84/72
f 72/86/73 76/90/73 77/91/73 73/87/73
f 71/88/74 75/92/74 76/90/74 72/86/74
f 70/89/75 74/93/75 75/92/75 71/88/75
f 76/90/76 52/94/76 54/95/76 77/91/76
f 75/92/77 50/96/77 52/94/77 76/90/77
f 74/93/78 48/97/78 50/96/78 75/92/78
f 74/93/79 83/98/79 79/99/79 48/97/79
f 78/100/80 82/101/80 80/102/80 81/103/80
f 48/71/81 79/104/81 78/100/81 47/68/81
f 62/81/82 81/103/82 80/102/82 66/85/82
f 66/85/83 80/102/83 82/101/83 70/89/83
f 70/89/84 82/101/84 83/98/84 74/93/84
f 47/68/85 78/100/85 81/103/85 62/81/85
f 79/99/86 83/98/86 82/101/86 78/100/86
f 54/95/87 84/105/87 85/106/87 77/91/87
f 84/105/88 86/46/88 87/45/88 85/106/88
f 54/95/89 59/15/89 86/46/89 84/105/89
f 87/45/90 89/48/90 88/107/90 85/106/90
f 89/48/91 91/50/91 90/108/91 88/107/91
f 91/50/92 93/52/92 92/109/92 90/108/92
f 93/52/93 95/54/93 94/110/93 92/109/93
f 85/106/94 88/107/94 77/91/94
f 73/87/95 77/91/95 88/107/95 90/108/95
f 69/83/96 73/87/96 90/108/96 92/109/96
f 65/79/97 69/83/97 92/109/97 94/110/97
f 94/110/98 100/111/98 99/112/98 65/79/98
f 53/74/99 96/113/99 97/114/99 55/76/99
f 95/54/100 101/59/100 100/111/100 94/110/100
f 55/76/101 97/114/101 98/60/101 57/12/101
f 65/79/102 99/112/102 96/113/102 53/74/102
f 96/113/103 102/115/103 103/116/103 97/114/103
f 101/59/104 107/64/104 106/117/104 100/111/104
f 97/114/105 103/116/105 104/65/105 98/60/105
f 100/111/106 106/117/106 105/118/106 99/112/106
f 99/112/107 105/118/107 102/115/107 96/113/107
f 102/115/108 108/67/108 103/116/108
f 107/64/109 108/67/109 106/117/109
f 103/116/110 108/67/110 104/65/110
f 106/117/111 108/67/111 105/118/111
f 105/118/112 108/67/112 102/115/112
